<svg width="148" height="153" viewBox="0 0 148 153" fill="none" xmlns="http://www.w3.org/2000/svg">
<path d="M13.9747 117.113C12.6241 117.971 10.8288 117.574 10.0247 116.191C3.5709 105.089 0.108462 92.483 0.00250614 79.609C-0.111408 65.7682 3.65881 52.1728 10.8849 40.3674C18.1109 28.562 28.5031 19.0199 40.8807 12.8251C52.3938 7.06307 65.1953 4.41187 78.0176 5.10913C79.615 5.19599 80.7853 6.61422 80.636 8.20704C80.4867 9.79987 79.0742 10.9636 77.4765 10.882C65.7339 10.2827 54.0175 12.7289 43.4736 18.0059C32.065 23.7157 22.4864 32.5108 15.8261 43.3919C9.16577 54.2731 5.69072 66.8041 5.79571 79.5613C5.89275 91.3516 9.04409 102.898 14.9196 113.083C15.7191 114.469 15.3252 116.256 13.9747 117.113Z" fill="#70CF97"/>
<mask id="path-2-inside-1_538_1167" fill="white">
<path d="M81.9125 8.32789C82.0898 6.74371 83.5191 5.5975 85.0952 5.8365C96.1501 7.51292 106.695 11.6751 115.929 18.0246C125.956 24.9199 134.128 34.1818 139.721 44.9899C145.315 55.798 148.156 67.8187 147.993 79.9872C147.844 91.1925 145.152 102.205 140.136 112.197C139.421 113.622 137.659 114.127 136.264 113.357C134.868 112.587 134.367 110.833 135.077 109.406C139.637 100.247 142.084 90.1661 142.221 79.9102C142.371 68.691 139.751 57.608 134.595 47.643C129.438 37.678 121.903 29.1386 112.658 22.7813C104.206 16.9697 94.5637 13.1455 84.4522 11.578C82.8769 11.3338 81.7351 9.91207 81.9125 8.32789Z"/>
</mask>
<path d="M81.9125 8.32789C82.0898 6.74371 83.5191 5.5975 85.0952 5.8365C96.1501 7.51292 106.695 11.6751 115.929 18.0246C125.956 24.9199 134.128 34.1818 139.721 44.9899C145.315 55.798 148.156 67.8187 147.993 79.9872C147.844 91.1925 145.152 102.205 140.136 112.197C139.421 113.622 137.659 114.127 136.264 113.357C134.868 112.587 134.367 110.833 135.077 109.406C139.637 100.247 142.084 90.1661 142.221 79.9102C142.371 68.691 139.751 57.608 134.595 47.643C129.438 37.678 121.903 29.1386 112.658 22.7813C104.206 16.9697 94.5637 13.1455 84.4522 11.578C82.8769 11.3338 81.7351 9.91207 81.9125 8.32789Z" fill="#A162F7" stroke="#A162F7" stroke-width="2" mask="url(#path-2-inside-1_538_1167)"/>
<mask id="path-3-inside-2_538_1167" fill="white">
<path d="M135.616 114.503C136.998 115.299 137.477 117.068 136.628 118.417C130.424 128.274 121.973 136.54 111.952 142.527C101.103 149.008 88.7749 152.603 76.1428 152.969C63.5107 153.335 50.9953 150.46 39.7894 144.617C29.4381 139.221 20.5228 131.458 13.7588 121.977C12.8327 120.679 13.209 118.885 14.5423 118.01C15.8756 117.135 17.6606 117.511 18.591 118.806C24.811 127.464 32.9823 134.556 42.4591 139.497C52.7905 144.883 64.3292 147.534 75.9756 147.197C87.6219 146.859 98.9878 143.545 108.99 137.569C118.165 132.088 125.912 124.536 131.62 115.532C132.474 114.185 134.235 113.707 135.616 114.503Z"/>
</mask>
<path d="M135.616 114.503C136.998 115.299 137.477 117.068 136.628 118.417C130.424 128.274 121.973 136.54 111.952 142.527C101.103 149.008 88.7749 152.603 76.1428 152.969C63.5107 153.335 50.9953 150.46 39.7894 144.617C29.4381 139.221 20.5228 131.458 13.7588 121.977C12.8327 120.679 13.209 118.885 14.5423 118.01C15.8756 117.135 17.6606 117.511 18.591 118.806C24.811 127.464 32.9823 134.556 42.4591 139.497C52.7905 144.883 64.3292 147.534 75.9756 147.197C87.6219 146.859 98.9878 143.545 108.99 137.569C118.165 132.088 125.912 124.536 131.62 115.532C132.474 114.185 134.235 113.707 135.616 114.503Z" fill="#FF6370" stroke="#FF6370" stroke-width="2" mask="url(#path-3-inside-2_538_1167)"/>
<circle cx="81.5" cy="9.5" r="7.5" fill="white" stroke="#70CF97" stroke-width="4"/>
<circle cx="134.5" cy="113.5" r="7.5" fill="white" stroke="#A162F7" stroke-width="4"/>
<circle cx="15.5" cy="117.5" r="7.5" fill="white" stroke="#FF6370" stroke-width="4"/>
<circle cx="73.5" cy="79.5" r="47.5" fill="#F7F7F7"/>
<path d="M51.3781 61.168C50.6594 61.168 50.0247 61.0467 49.4741 60.804C48.9234 60.552 48.4894 60.1973 48.1721 59.74C47.8547 59.2733 47.6914 58.7087 47.6821 58.046H49.5721C49.5907 58.5033 49.7541 58.8907 50.0621 59.208C50.3794 59.516 50.8134 59.67 51.3641 59.67C51.8401 59.67 52.2181 59.558 52.4981 59.334C52.7781 59.1007 52.9181 58.7927 52.9181 58.41C52.9181 58.0087 52.7921 57.696 52.5401 57.472C52.2974 57.248 51.9707 57.066 51.5601 56.926C51.1494 56.786 50.7107 56.6367 50.2441 56.478C49.4881 56.2167 48.9094 55.8807 48.5081 55.47C48.1161 55.0593 47.9201 54.5133 47.9201 53.832C47.9107 53.2533 48.0461 52.7587 48.3261 52.348C48.6154 51.928 49.0074 51.606 49.5021 51.382C49.9967 51.1487 50.5661 51.032 51.2101 51.032C51.8634 51.032 52.4374 51.1487 52.9321 51.382C53.4361 51.6153 53.8281 51.942 54.1081 52.362C54.3974 52.782 54.5514 53.2813 54.5701 53.86H52.6521C52.6427 53.5147 52.5074 53.2113 52.2461 52.95C51.9941 52.6793 51.6394 52.544 51.1821 52.544C50.7901 52.5347 50.4587 52.6327 50.1881 52.838C49.9267 53.034 49.7961 53.3233 49.7961 53.706C49.7961 54.0327 49.8987 54.294 50.1041 54.49C50.3094 54.6767 50.5894 54.8353 50.9441 54.966C51.2987 55.0967 51.7047 55.2367 52.1621 55.386C52.6474 55.554 53.0907 55.75 53.4921 55.974C53.8934 56.198 54.2154 56.4967 54.4581 56.87C54.7007 57.234 54.8221 57.7053 54.8221 58.284C54.8221 58.7973 54.6914 59.2733 54.4301 59.712C54.1687 60.1507 53.7814 60.5053 53.2681 60.776C52.7547 61.0373 52.1247 61.168 51.3781 61.168ZM59.7176 61.168C59.0176 61.168 58.3969 61.0187 57.8556 60.72C57.3143 60.4213 56.8896 60.0013 56.5816 59.46C56.2736 58.9187 56.1196 58.2933 56.1196 57.584C56.1196 56.8653 56.2689 56.226 56.5676 55.666C56.8756 55.106 57.2956 54.672 57.8276 54.364C58.3689 54.0467 59.0036 53.888 59.7316 53.888C60.4129 53.888 61.0149 54.0373 61.5376 54.336C62.0603 54.6347 62.4663 55.0453 62.7556 55.568C63.0543 56.0813 63.2036 56.6553 63.2036 57.29C63.2036 57.3927 63.1989 57.5 63.1896 57.612C63.1896 57.724 63.1849 57.8407 63.1756 57.962H57.8976C57.9349 58.5033 58.1216 58.928 58.4576 59.236C58.8029 59.544 59.2183 59.698 59.7036 59.698C60.0676 59.698 60.3709 59.6187 60.6136 59.46C60.8656 59.292 61.0523 59.0773 61.1736 58.816H62.9936C62.8629 59.2547 62.6436 59.656 62.3356 60.02C62.0369 60.3747 61.6636 60.6547 61.2156 60.86C60.7769 61.0653 60.2776 61.168 59.7176 61.168ZM59.7316 55.344C59.2929 55.344 58.9056 55.47 58.5696 55.722C58.2336 55.9647 58.0189 56.338 57.9256 56.842H61.3836C61.3556 56.3847 61.1876 56.0207 60.8796 55.75C60.5716 55.4793 60.1889 55.344 59.7316 55.344ZM64.7108 61V54.056H66.3068L66.4748 55.358C66.7268 54.91 67.0674 54.5553 67.4968 54.294C67.9354 54.0233 68.4488 53.888 69.0368 53.888V55.778H68.5328C68.1408 55.778 67.7908 55.8387 67.4828 55.96C67.1748 56.0813 66.9321 56.2913 66.7548 56.59C66.5868 56.8887 66.5028 57.304 66.5028 57.836V61H64.7108ZM72.1376 61L69.5896 54.056H71.4656L73.2296 59.306L74.9936 54.056H76.8696L74.3076 61H72.1376ZM78.9658 52.978C78.6392 52.978 78.3685 52.88 78.1538 52.684C77.9485 52.488 77.8458 52.2407 77.8458 51.942C77.8458 51.6433 77.9485 51.4007 78.1538 51.214C78.3685 51.018 78.6392 50.92 78.9658 50.92C79.2925 50.92 79.5585 51.018 79.7638 51.214C79.9785 51.4007 80.0858 51.6433 80.0858 51.942C80.0858 52.2407 79.9785 52.488 79.7638 52.684C79.5585 52.88 79.2925 52.978 78.9658 52.978ZM78.0698 61V54.056H79.8618V61H78.0698ZM85.1343 61.168C84.4249 61.168 83.7996 61.014 83.2583 60.706C82.7169 60.398 82.2876 59.9687 81.9703 59.418C81.6623 58.8673 81.5083 58.2373 81.5083 57.528C81.5083 56.8187 81.6623 56.1887 81.9703 55.638C82.2876 55.0873 82.7169 54.658 83.2583 54.35C83.7996 54.042 84.4249 53.888 85.1343 53.888C86.0209 53.888 86.7676 54.1213 87.3743 54.588C87.9809 55.0453 88.3683 55.68 88.5363 56.492H86.6463C86.5529 56.156 86.3663 55.8947 86.0863 55.708C85.8156 55.512 85.4936 55.414 85.1203 55.414C84.6256 55.414 84.2056 55.6007 83.8603 55.974C83.5149 56.3473 83.3423 56.8653 83.3423 57.528C83.3423 58.1907 83.5149 58.7087 83.8603 59.082C84.2056 59.4553 84.6256 59.642 85.1203 59.642C85.4936 59.642 85.8156 59.5487 86.0863 59.362C86.3663 59.1753 86.5529 58.9093 86.6463 58.564H88.5363C88.3683 59.348 87.9809 59.978 87.3743 60.454C86.7676 60.93 86.0209 61.168 85.1343 61.168ZM93.5008 61.168C92.8008 61.168 92.1801 61.0187 91.6388 60.72C91.0975 60.4213 90.6728 60.0013 90.3648 59.46C90.0568 58.9187 89.9028 58.2933 89.9028 57.584C89.9028 56.8653 90.0521 56.226 90.3508 55.666C90.6588 55.106 91.0788 54.672 91.6108 54.364C92.1521 54.0467 92.7868 53.888 93.5148 53.888C94.1961 53.888 94.7981 54.0373 95.3208 54.336C95.8435 54.6347 96.2495 55.0453 96.5388 55.568C96.8375 56.0813 96.9868 56.6553 96.9868 57.29C96.9868 57.3927 96.9821 57.5 96.9728 57.612C96.9728 57.724 96.9681 57.8407 96.9588 57.962H91.6808C91.7181 58.5033 91.9048 58.928 92.2408 59.236C92.5861 59.544 93.0015 59.698 93.4868 59.698C93.8508 59.698 94.1541 59.6187 94.3968 59.46C94.6488 59.292 94.8355 59.0773 94.9568 58.816H96.7768C96.6461 59.2547 96.4268 59.656 96.1188 60.02C95.8201 60.3747 95.4468 60.6547 94.9988 60.86C94.5601 61.0653 94.0608 61.168 93.5008 61.168ZM93.5148 55.344C93.0761 55.344 92.6888 55.47 92.3528 55.722C92.0168 55.9647 91.8021 56.338 91.7088 56.842H95.1668C95.1388 56.3847 94.9708 56.0207 94.6628 55.75C94.3548 55.4793 93.9721 55.344 93.5148 55.344ZM60.4928 79V70.642H57.6368V69.2H65.1548V70.642H62.2848V79H60.4928ZM67.4063 70.978C67.0796 70.978 66.8089 70.88 66.5943 70.684C66.3889 70.488 66.2863 70.2407 66.2863 69.942C66.2863 69.6433 66.3889 69.4007 66.5943 69.214C66.8089 69.018 67.0796 68.92 67.4063 68.92C67.7329 68.92 67.9989 69.018 68.2043 69.214C68.4189 69.4007 68.5263 69.6433 68.5263 69.942C68.5263 70.2407 68.4189 70.488 68.2043 70.684C67.9989 70.88 67.7329 70.978 67.4063 70.978ZM66.5103 79V72.056H68.3023V79H66.5103ZM70.1727 79V72.056H71.7547L71.9087 72.994C72.1327 72.658 72.4267 72.392 72.7907 72.196C73.164 71.9907 73.5934 71.888 74.0787 71.888C75.152 71.888 75.9127 72.3033 76.3607 73.134C76.6127 72.7513 76.9487 72.448 77.3687 72.224C77.798 72 78.2647 71.888 78.7687 71.888C79.674 71.888 80.3694 72.1587 80.8547 72.7C81.34 73.2413 81.5827 74.0347 81.5827 75.08V79H79.7907V75.248C79.7907 74.6507 79.674 74.1933 79.4407 73.876C79.2167 73.5587 78.8667 73.4 78.3907 73.4C77.9054 73.4 77.5134 73.5773 77.2147 73.932C76.9254 74.2867 76.7807 74.7813 76.7807 75.416V79H74.9887V75.248C74.9887 74.6507 74.872 74.1933 74.6387 73.876C74.4054 73.5587 74.046 73.4 73.5607 73.4C73.0847 73.4 72.6974 73.5773 72.3987 73.932C72.1094 74.2867 71.9647 74.7813 71.9647 75.416V79H70.1727ZM86.658 79.168C85.958 79.168 85.3374 79.0187 84.796 78.72C84.2547 78.4213 83.83 78.0013 83.522 77.46C83.214 76.9187 83.06 76.2933 83.06 75.584C83.06 74.8653 83.2094 74.226 83.508 73.666C83.816 73.106 84.236 72.672 84.768 72.364C85.3094 72.0467 85.944 71.888 86.672 71.888C87.3534 71.888 87.9554 72.0373 88.478 72.336C89.0007 72.6347 89.4067 73.0453 89.696 73.568C89.9947 74.0813 90.144 74.6553 90.144 75.29C90.144 75.3927 90.1394 75.5 90.13 75.612C90.13 75.724 90.1254 75.8407 90.116 75.962H84.838C84.8754 76.5033 85.062 76.928 85.398 77.236C85.7434 77.544 86.1587 77.698 86.644 77.698C87.008 77.698 87.3114 77.6187 87.554 77.46C87.806 77.292 87.9927 77.0773 88.114 76.816H89.934C89.8034 77.2547 89.584 77.656 89.276 78.02C88.9774 78.3747 88.604 78.6547 88.156 78.86C87.7174 79.0653 87.218 79.168 86.658 79.168ZM86.672 73.344C86.2334 73.344 85.846 73.47 85.51 73.722C85.174 73.9647 84.9594 74.338 84.866 74.842H88.324C88.296 74.3847 88.128 74.0207 87.82 73.75C87.512 73.4793 87.1294 73.344 86.672 73.344Z" fill="#5F6165"/>
<path d="M56.9636 108.288C55.7316 108.288 54.6676 108.072 53.7716 107.64C52.8916 107.208 52.1956 106.616 51.6836 105.864C51.1876 105.096 50.8996 104.232 50.8196 103.272H53.8196C53.9636 103.96 54.3156 104.536 54.8756 105C55.4356 105.448 56.1316 105.672 56.9636 105.672C57.8596 105.672 58.5876 105.344 59.1476 104.688C59.7236 104.032 60.0116 103.216 60.0116 102.24C60.0116 101.232 59.7236 100.432 59.1476 99.84C58.5876 99.248 57.8756 98.952 57.0116 98.952C56.2916 98.952 55.6676 99.128 55.1396 99.48C54.6116 99.832 54.2356 100.272 54.0116 100.8H51.0596L52.4996 91.2H61.8116V93.888H54.8036L54.0356 97.776C54.3876 97.392 54.8676 97.08 55.4756 96.84C56.0836 96.584 56.7636 96.456 57.5156 96.456C58.7156 96.456 59.7156 96.728 60.5156 97.272C61.3156 97.8 61.9236 98.504 62.3396 99.384C62.7556 100.248 62.9636 101.192 62.9636 102.216C62.9636 103.384 62.7076 104.424 62.1956 105.336C61.6996 106.248 60.9956 106.968 60.0836 107.496C59.1876 108.024 58.1476 108.288 56.9636 108.288ZM64.5264 110.784L65.8944 104.808H68.8704L66.5424 110.784H64.5264ZM76.6879 108V105.768C77.7119 104.92 78.7039 104.08 79.6639 103.248C80.6399 102.416 81.5039 101.592 82.2559 100.776C83.0239 99.96 83.6319 99.168 84.0799 98.4C84.5439 97.616 84.7759 96.856 84.7759 96.12C84.7759 95.432 84.5839 94.824 84.1999 94.296C83.8319 93.768 83.2159 93.504 82.3519 93.504C81.4719 93.504 80.8079 93.792 80.3599 94.368C79.9119 94.944 79.6879 95.64 79.6879 96.456H76.7119C76.7439 95.224 77.0159 94.2 77.5279 93.384C78.0399 92.552 78.7199 91.936 79.5679 91.536C80.4159 91.12 81.3679 90.912 82.4239 90.912C84.1359 90.912 85.4639 91.384 86.4079 92.328C87.3679 93.256 87.8479 94.464 87.8479 95.952C87.8479 96.88 87.6319 97.784 87.1999 98.664C86.7839 99.544 86.2319 100.392 85.5439 101.208C84.8559 102.024 84.1119 102.792 83.3119 103.512C82.5119 104.216 81.7359 104.872 80.9839 105.48H88.2559V108H76.6879ZM90.0848 108V97.92H91.8768V102.12C92.1101 101.737 92.4228 101.439 92.8148 101.224C93.2161 101 93.6735 100.888 94.1868 100.888C95.0455 100.888 95.7081 101.159 96.1748 101.7C96.6508 102.241 96.8888 103.035 96.8888 104.08V108H95.1108V104.248C95.1108 103.651 94.9895 103.193 94.7468 102.876C94.5135 102.559 94.1401 102.4 93.6268 102.4C93.1228 102.4 92.7028 102.577 92.3668 102.932C92.0401 103.287 91.8768 103.781 91.8768 104.416V108H90.0848Z" fill="#A162F7"/>
</svg>
